# xmcd CD database file
#
# Track frame offsets:
#	150
#	10512
#	24312
#	38294
#	55162
#	70764
#	81557
#	90300
#	99549
#	110154
#	128104
#	144193
#	154746
#	168352
#	179857
#	195820
#	218836
#
# Disc length: 3187 seconds
#
# Revision: 0
# Processed by: cddbd v1.5.1PL2 Copyright (c) Steve Scherf et al.
# Submitted via: CDex 1.51
#
DISCID=d30c7111
DTITLE=no - Jazz on X'mas eve
DYEAR=1900
DGENRE=Jazz
TTITLE0=Rudolph the Red-nosed Reindeer
TTITLE1=We wish you a merry christmas
TTITLE2=I'm dreaming of a white christmas
TTITLE3=Merry christmas everybody
TTITLE4=Santa baby
TTITLE5=Santa Claus is coming to town
TTITLE6=I wish you a merry christmas
TTITLE7=Caroling, Caroling
TTITLE8=Santa Claus is coming to town
TTITLE9=I've got my love to keep me warm
TTITLE10=Silverbells
TTITLE11=Mistletoe and holly
TTITLE12=Rockin' around the christmas tree
TTITLE13=Jingle bell rock
TTITLE14=Jingle bells
TTITLE15=OH! happy day
TTITLE16=white christmas
EXTD=
EXTT0=
EXTT1=
EXTT2=
EXTT3=
EXTT4=
EXTT5=
EXTT6=
EXTT7=
EXTT8=
EXTT9=
EXTT10=
EXTT11=
EXTT12=
EXTT13=
EXTT14=
EXTT15=
EXTT16=
PLAYORDER=
